<?xml version="1.0" encoding="iso-8859-1"?>
<!-- Generator: Adobe Illustrator 18.0.0, SVG Export Plug-In . SVG Version: 6.00 Build 0)  -->
<!DOCTYPE svg PUBLIC "-//W3C//DTD SVG 1.1//EN" "http://www.w3.org/Graphics/SVG/1.1/DTD/svg11.dtd">
<svg xmlns="http://www.w3.org/2000/svg" xmlns:xlink="http://www.w3.org/1999/xlink" version="1.1" id="Capa_1" x="0px" y="0px" viewBox="0 0 208.859 208.859" style="enable-background:new 0 0 208.859 208.859;" xml:space="preserve" width="512px" height="512px">
<g>
	<path d="M117.457,154.701c-3.34-2.45-8.034-1.729-10.483,1.61l-12.234,16.676l-0.052-56.411   c-0.004-4.14-3.36-7.493-7.5-7.493h-0.007c-4.143,0.004-7.497,3.365-7.493,7.507l0.052,56.542l-12.651-16.8   c-2.49-3.308-7.192-3.971-10.503-1.479c-3.309,2.492-3.972,7.194-1.479,10.503l19.004,25.236c3.145,4.175,7.934,6.563,13.153,6.563   c0.036,0,0.072,0,0.107,0c5.262-0.033,10.064-2.485,13.177-6.728l18.52-25.243C121.518,161.844,120.797,157.151,117.457,154.701z" fill="#FFFFFF"/>
	<path d="M161.895,51.17h-28.896c-1.635-9.713-6.188-18.647-13.192-25.693   c-8.829-8.881-20.584-13.772-33.1-13.772c-23.517,0-43.063,17.4-46.446,40.011c-10.02,1.517-19.25,6.124-26.487,13.319   C4.892,73.864,0,85.619,0,98.135c0,25.874,21.065,46.943,46.965,46.965h18.068c4.143,0,7.5-3.358,7.5-7.5s-3.357-7.5-7.5-7.5   H46.972C29.343,130.085,15,115.745,15,98.135C15,80.5,29.065,66.469,47.03,66.17l0.225,0c4.134-0.007,7.482-3.359,7.486-7.494   c0.015-17.629,14.354-31.971,31.965-31.971c17.649,0,31.69,14.091,31.966,32.08c0.063,4.097,3.401,7.385,7.499,7.385h35.724   c17.626,0,31.965,14.339,31.965,31.965S179.521,130.1,161.895,130.1l-53.865,0c-4.143,0-7.5,3.358-7.5,7.5s3.358,7.5,7.5,7.5   l53.865,0c25.896,0,46.965-21.068,46.965-46.965S187.791,51.17,161.895,51.17z" fill="#FFFFFF"/>
</g>
<g>
</g>
<g>
</g>
<g>
</g>
<g>
</g>
<g>
</g>
<g>
</g>
<g>
</g>
<g>
</g>
<g>
</g>
<g>
</g>
<g>
</g>
<g>
</g>
<g>
</g>
<g>
</g>
<g>
</g>
</svg>
