<?xml version="1.0" encoding="iso-8859-1"?>
<!-- Generator: Adobe Illustrator 19.1.0, SVG Export Plug-In . SVG Version: 6.00 Build 0)  -->
<svg xmlns="http://www.w3.org/2000/svg" xmlns:xlink="http://www.w3.org/1999/xlink" version="1.1" id="Capa_1" x="0px" y="0px" viewBox="0 0 49.464 49.464" style="enable-background:new 0 0 49.464 49.464;" xml:space="preserve" width="512px" height="512px">
<g>
	<g>
		<path d="M5.265,6.651v36.182c0,3.152,3.079,6.301,6.185,6.605c0.179,0.018,0.482,0.026,0.66,0.026    c2.336,0,4.395-1.435,5.997-2.587c0.28-0.2,0.579-0.394,0.835-0.566c2.257-1.526,4.499-3.154,6.652-4.729    c1.86-1.359,3.791-2.766,5.706-4.085c1.777-1.225,3.543-2.475,5.303-3.724l1.908-1.352c3.051-2.08,5.688-3.877,5.688-7.682    c0-3.947-3.188-6.031-5.688-7.663c-0.375-0.266-0.759-0.53-1.143-0.794c-0.448-0.308-0.897-0.616-1.333-0.929    c-3.844-2.763-7.61-5.46-11.436-8.085c-0.53-0.364-1.064-0.735-1.601-1.108c-1.399-0.973-2.847-1.979-4.288-2.904    c-0.339-0.218-0.7-0.496-1.083-0.788C16.185,1.368,14.39,0,12.215,0c-0.871,0-1.958,0.225-2.735,0.666    C7.651,1.706,5.265,3.897,5.265,6.651z M9.265,6.651c0-0.787,1.103-1.887,2.191-2.505c0.175-0.1,0.457-0.145,0.635-0.145    c0.824,0,2.086,0.914,3.05,1.649c0.463,0.353,0.931,0.686,1.377,0.972c1.38,0.887,2.812,1.871,4.183,2.824    c0.543,0.377,1.09,0.752,1.627,1.121c3.794,2.603,7.545,5.286,11.37,8.035c0.458,0.329,0.933,0.654,1.404,0.978    c0.368,0.254,0.737,0.506,1.158,0.803c2.724,1.78,3.938,2.832,3.938,4.357c0,1.491-0.791,2.23-3.967,4.396l-1.94,1.375    c-1.744,1.237-3.49,2.478-5.253,3.691c-1.961,1.352-3.907,2.773-5.789,4.149c-2.125,1.553-4.322,3.159-6.519,4.646    c-0.284,0.192-0.584,0.407-0.896,0.631c-1.137,0.817-2.553,1.835-3.601,1.835c-0.048,0-0.345-0.002-0.394-0.007    c-1.065-0.104-2.576-1.527-2.576-2.625V6.651H9.265z" fill="#FFFFFF"/>
	</g>
</g>
<g>
</g>
<g>
</g>
<g>
</g>
<g>
</g>
<g>
</g>
<g>
</g>
<g>
</g>
<g>
</g>
<g>
</g>
<g>
</g>
<g>
</g>
<g>
</g>
<g>
</g>
<g>
</g>
<g>
</g>
</svg>
